<svg width="343" height="227" viewBox="0 0 343 227" fill="none" xmlns="http://www.w3.org/2000/svg">
<g filter="url(#filter0_d)">
<path d="M215.741 164.051C217.506 162.886 219.637 162.576 221.632 163.184C222.242 163.37 225.486 164.408 224.236 165.51C225.674 165.412 225.622 163.868 226.681 163.239C228.261 162.302 229.357 161.038 231.251 161.859C231.742 162.072 232.19 162.594 232.656 162.761C233.405 163.031 233.296 161.672 233.992 162.787C234.401 163.442 235.778 162.304 236.602 162.331C234.024 160.959 239.012 160.664 239.526 160.699C239.19 160.05 238.838 159.49 238.918 158.723C240.34 159.333 241.399 159.698 242.159 158.024C242.347 157.614 244.733 156.85 243.835 156.305C243.366 156.02 241.753 155.876 241.164 155.889C239.21 155.926 238.032 153.337 235.923 154.6C235.847 152.447 234.569 153.395 233.359 152.323C232.103 151.218 230.498 150.165 229.818 148.932C229.948 149.645 230.332 150.588 229.961 151.29C229.711 151.673 229.348 151.859 228.876 151.85C229.104 152.338 229.104 152.825 228.876 153.311C227.366 151.889 224.162 153.665 223.203 151.285C222.695 150.029 222.129 149.888 220.89 150.264C219.88 150.569 218.741 149.3 217.711 149.276C218.14 146.36 223.056 144.084 224.929 142.319C222.4 141.009 220.771 142.393 222.215 139.163C222.597 138.309 222.228 137.66 223.205 137.1C224.222 136.52 225.575 136.846 226.444 136.268C228.264 135.059 232.85 136.772 234.688 137.35C235.334 137.492 235.921 137.76 236.453 138.158C237.532 138.953 238.046 138.583 239.266 138.712C240.477 138.838 241.614 140.338 242.877 139.914C241.629 138.738 240.484 134.412 242.371 133.376C242.827 133.126 246.475 132.252 246.051 131.498C248.553 132.319 251.038 133.645 253.391 134.822C254.301 135.278 258.505 136.77 259.626 136.221C260.482 135.8 259.738 134.762 260.913 134.762C262.627 134.762 264.37 135.409 266.075 135.188C267.32 135.026 268.482 134.417 269.753 134.417C271.085 134.417 272.217 135.406 273.573 134.998C274.786 134.637 276.183 135.016 277.386 135.227C278.953 135.501 280.46 135.194 282.032 135.293C284.643 135.46 288.5 136.427 290.543 138.107C291.422 138.83 291.774 139.8 293.092 139.753C294.216 139.711 294.914 139.732 295.884 140.291C297.097 140.984 299.033 142.062 299.609 143.424C299.777 143.822 296.424 144.957 295.773 145.498C293.679 147.234 290.423 148.003 288.082 149.555C286.993 150.274 286.506 150.797 286.247 152.055C286.019 153.153 285.553 154.124 284.271 153.996C283 153.87 281.958 154.767 280.673 154.646C279.271 154.511 277.95 154.177 276.525 154.199C274.644 154.228 274.167 156.564 274.017 158.183C273.683 161.787 271.584 160.293 269.027 161.435C266.601 162.517 266.831 159.765 265.545 158.759C264.825 158.2 263.877 159.204 263.335 159.527C262.061 160.285 260.83 160.037 259.446 159.75C259.316 160.343 259.375 160.916 259.624 161.467C258.507 161.496 257.826 162.571 257.105 163.256C256.034 164.28 254.412 163.655 253.515 164.902C252.244 166.675 255.716 169.13 253.405 170.288C252.372 170.807 251.2 169.941 250.204 170.642C249.053 171.447 247.668 171.525 246.312 171.388C244.576 171.212 241.427 170.622 241.158 173.148C240.654 172.546 239.916 171.98 239.205 171.65C238.323 171.243 237.691 172.488 237.06 172.144C236.379 171.773 236.734 170.671 236.174 170.486C235.714 170.527 235.256 170.504 234.804 170.417C234.283 170.083 234.154 169.468 233.671 169.132C232.347 168.205 230.284 171.007 229.011 171.022C227.991 171.032 227.402 170.825 226.869 169.938C226.026 168.53 224.348 169.281 223.202 169.715C223.172 169.401 223.141 169.087 223.121 168.772C222.35 169.235 220.308 169.897 219.462 169.391C218.255 168.666 217.108 170.211 215.845 169.575C214.435 168.862 214.25 164.011 215.908 165.766C215.943 165.188 215.889 164.615 215.741 164.051Z" fill="#F44336" stroke="white" stroke-width="1.0003"/>
<path d="M199.674 172.21C200.389 170.906 199.707 168.773 202.167 168.773C204.084 168.773 205.966 169.847 207.895 169.544C209.288 169.327 209.596 168.321 209.323 167.155C209.219 166.717 209.155 166.233 209.712 166.08C211.005 165.726 209.63 164.496 211.021 165.767C210.439 165.371 210.003 164.753 209.902 164.049C210.306 164.048 210.709 164.075 211.107 164.134C210.503 162.841 209.039 164.025 208.099 163.275C209.683 161.605 212.107 163.515 213.933 162.759C213.068 162.078 213.839 161.562 213.232 160.586C212.71 159.744 211.868 157.627 213.164 156.989C214.415 156.372 215.498 158.168 216.728 157.884C218.426 157.493 220.508 155.773 221.316 154.255C222.269 154.995 222.914 156.073 223.842 156.839C225.01 157.802 224.517 158.398 223.279 159.314C221.593 160.564 222.091 160.279 223.465 161.212C224.067 161.622 224.444 162.571 225.194 162.758C226.059 162.976 226.912 162.366 227.758 162.329C227.009 163.134 225.343 165.433 224.238 165.506C225.471 164.419 220.967 162.759 219.943 162.672C217.484 162.463 216.041 163.664 215.912 165.765C214.081 163.822 215.011 168.513 215.543 169.295C216.266 170.36 217.879 169.217 218.757 169.138C220.322 168.995 221.486 169.761 223.128 168.771C223.152 169.087 223.179 169.4 223.21 169.716C224.029 169.404 225.011 168.99 225.906 169.242C226.916 169.528 227.127 170.613 227.988 171.026C229.249 171.629 231.801 169.76 232.892 169.135C234.121 168.434 233.788 169.766 234.357 170.128C234.874 170.27 235.394 170.357 235.924 170.402C236.153 170.715 236.326 171.058 236.439 171.431C238.084 172.638 239.46 171.107 241.164 173.148C241.49 170.097 246.542 171.285 248.496 171.263C249.505 171.25 251.348 169.845 252.128 170.657C252.784 171.34 252.706 172.152 252.964 172.98C253.299 174.052 254.617 174.746 255.251 175.64C253.337 175.652 255.318 178.351 255.787 178.941C256.466 179.795 257.402 180.066 258.173 179.11C258.986 178.101 260.277 178.625 261.266 178.922C263.632 179.634 265.186 179.849 265.19 182.616C265.192 183.584 266.879 186.887 267.608 187.334C268.296 187.757 267.793 188.822 268.09 189.444C268.526 190.346 269.248 190.424 269.843 191.113C270.322 191.669 269.438 192.823 268.864 192.949C268.412 193.05 267.674 192.303 267.243 192.164C266.555 191.938 263.614 190.849 263.03 191.493C262.084 192.543 259.397 193.748 257.996 193.16C260.233 190.669 254.688 190.868 253.354 191.948C252.137 192.927 250.979 192.993 250.329 194.52C249.636 196.147 247.298 195.337 246.2 196.557C240.661 202.703 237.901 192.32 238.7 187.835C239.26 184.701 237.225 187.451 235.928 186.284C235.413 185.823 236.195 183.957 236.032 183.288C235.797 182.303 233.231 181.036 232.38 180.769C229.629 179.915 228.506 184.261 226.955 185.824C226.131 186.653 227.606 187.363 227.929 188.002C228.762 189.654 226.994 190.565 225.652 189.758C224.658 189.161 222.8 189.639 221.883 190.19C220.603 190.96 221.362 191.906 221.793 192.913C223.099 195.949 218.953 193.561 218.241 192.991C216.833 191.858 215.928 193.19 214.455 194.016C213.661 194.459 212.196 194.34 212.392 195.649C211.046 195.361 211.37 197.236 209.879 195.871C208.316 194.436 207.066 191.47 208.245 189.425C209.743 186.83 212.311 184.163 209.125 181.912C206.646 180.162 208.948 175.206 205.544 175.138C204.575 175.117 203.291 175.439 202.825 174.367C202.193 172.93 200.448 173.672 199.674 172.21Z" fill="#FF7F50" stroke="white" stroke-width="1.0003"/>
<path d="M69.387 147.046C73.4 141.234 80.179 139.859 86.262 142.88C89.152 144.317 90.907 146.932 92.996 149.309C95.877 152.581 98.87 151.337 102.831 151.608C104.626 151.731 106.344 151.665 108.112 151.925C110.236 152.238 108.815 150.84 108.549 150.223C107.11 146.899 106.462 145.772 109.119 143.169C110.707 141.611 113.82 143.834 113.848 140.461C113.875 137.479 117.661 141.135 118.675 141.376C118.284 140.95 115.132 138.283 115.113 138.115C115.032 137.412 118.197 138.088 118.346 137.476C118.632 136.31 119.744 137.273 120.367 137.863C121.339 138.785 122.553 138.676 123.714 139.185C124.735 139.634 124.633 140.904 125.776 141.213C126.824 141.498 127.954 141.207 129.018 141.246C130.486 141.298 131.3 142.157 131.6 143.593C131.968 145.355 133.334 145.066 133.886 146.527C133.098 146.402 132.71 146.586 133.176 147.31C133.869 148.386 133.831 148.465 133.73 149.658C133.562 151.609 138.26 152.183 139.459 152.072C140.911 151.937 142.038 152.462 143.422 152.763C145.205 153.152 144.568 151.644 145.773 151.663C149.013 151.709 150.458 154.94 151.727 157.298C152.348 158.453 153.065 159.191 154.072 160.009C155.427 161.114 155.688 162.588 156.446 164.075C157.794 166.723 162.19 168.264 164.594 169.752C167.571 171.597 170.303 174.407 173.783 175.299C176.554 176.009 179.668 178.196 182.084 179.746C184.509 181.299 186.238 183.169 189.299 182.838C190.879 182.664 195.212 184.191 196.324 185.513C196.966 186.277 196.172 186.935 196.093 187.715C195.966 188.99 196.786 190.157 196.995 191.378C197.37 193.576 191.238 190.724 190.391 190.038C189.546 189.354 189.257 191.548 189.255 191.84C189.247 193.306 188.236 193.31 187.091 193.316C186.022 193.32 184.837 193.325 183.843 193.775C182.329 194.462 183.28 195.713 183.051 196.914C182.727 198.634 182.395 199.3 182.557 201.076C182.692 202.517 181.422 203.355 180.295 203.928C177.338 205.426 174.44 207.88 170.9 207.424C171.154 208.125 171.668 208.717 172.272 209.141C171.168 209.74 171.568 211.42 170.273 212.329C168.887 213.299 165.96 213.267 165.232 214.809C164.762 213.408 163.689 212.209 162.157 211.962C159.99 211.611 159.029 211.623 156.989 210.6C156.429 210.319 156.874 209.569 156.025 209.964C155.324 210.291 155.211 209.451 155.107 208.925C154.985 208.319 154.975 207.647 154.669 207.088C153.881 205.65 153.683 207.305 154.06 205.288C154.281 204.113 153.296 201.728 153.083 200.437C152.834 198.926 151.604 199.03 150.338 199.093C149.067 199.157 147.581 199.572 146.317 199.259C144.626 198.845 143.741 196.558 142.454 195.547C140.902 194.327 138.365 194.651 137.121 192.913C135.959 191.296 135.441 190.328 133.446 189.565C131.402 188.785 129.788 189.139 127.685 189.014C125.856 188.909 124.734 187.417 123.063 186.891C121.511 186.401 118.483 186.661 117.705 184.994C117.023 183.531 116.405 182.831 114.836 183.194C114.117 183.362 107.206 181.807 108.895 184.572C106.803 185.028 104.749 183.901 102.656 184.343C100.201 184.864 98.608 186.441 96.916 188.129C96.146 188.9 96.937 189.886 96.276 190.706C95.88 191.198 95.162 191.458 94.59 191.653C93.288 192.093 90.997 192.762 89.748 191.83C88.763 191.091 88.469 188.885 88.19 187.797C87.57 185.381 87.745 182.9 87.17 180.474C86.818 178.986 88.076 176.83 86.858 175.701C86.159 175.053 84.569 174.621 84.75 173.409C84.75 175.062 83.715 172.999 82.966 172.326C82.182 171.621 80.64 170.541 80.121 172.12C79.088 170.866 79.226 168.916 80.634 167.997C78.824 169.742 82.937 169.157 83.64 169.372C82.901 169.389 82.534 168.21 82.378 168.268C81.458 168.6 81.675 166.866 81.658 166.358C81.566 163.837 77.879 165.381 76.341 164.561C77.44 166.348 75.488 164.942 75.132 164.493C74.631 163.86 74.46 163.03 74.409 162.246C74.298 160.548 74.742 158.893 74.781 157.203C74.798 156.475 75.063 155.416 74.805 154.729C74.471 153.843 73.718 153.131 73.388 152.158C73.038 151.121 72.541 150.706 71.755 149.994C70.758 149.092 70.624 147.784 69.387 147.046Z" fill="#009688" stroke="white" stroke-width="1.0003"/>
<path d="M8.48799 76.875C8.88399 75.562 8.80099 74.521 10.027 73.724C10.648 73.32 11.155 72.298 10.72 71.599C9.72299 69.994 8.52499 70.394 8.47599 68.128C8.41899 65.583 9.32599 65.53 10.537 63.614C11.326 62.367 10.297 60.421 11.381 59.33C13.819 56.878 18.073 64.67 20.226 64.954C21.517 65.125 24.962 63.868 23.143 62.291C21.752 61.084 21.876 57.628 19.999 57.035C22.51 57.693 22.87 56.024 24.966 55.319C27.025 54.626 24.143 52.933 26.296 52.524C28.288 52.144 30.159 51.479 32.051 50.533C33.698 49.711 32.53 46.416 35.196 47.674C34.966 47.102 34.734 46.528 34.505 45.957C35.314 46.13 39.088 46.707 39.313 47.351C40.201 49.901 41.468 47.254 42.497 48.963C43.112 48.204 43.146 47.348 44.048 46.815C44.444 46.866 44.839 46.864 45.235 46.809C45.733 46.435 46.253 46.093 46.792 45.785C48.43 51.039 53.527 47.137 56.848 49.374C58.435 50.443 59.955 51.083 61.565 52.012C62.227 52.395 62.75 53.007 63.195 53.614C63.874 54.541 65.063 54.56 66.034 54.974C65.609 55.703 66.082 58.966 67.412 58.216C69.429 57.076 66.335 54.654 65.95 53.515C67.068 52.744 69.239 53.972 70.036 54.769C71.434 56.164 73.49 56.084 74.741 57.198C76.125 58.431 77.109 57.74 78.43 56.55C78.875 56.149 78.609 55.362 79.095 55.023C79.836 54.502 80.876 54.097 80.802 53C81.474 53.041 82.074 53.271 82.603 53.686C82.671 52.419 86.214 52.206 86.773 53.12C87.124 53.691 87.967 54.175 88.517 54.524C89.507 55.153 90.295 54.005 91.287 54.459C91.213 51.889 91.047 52.717 93.491 52.861C94.761 52.936 95.262 51.865 96.64 52.681C97.629 53.269 97.989 54.029 98.429 55.008C99.04 56.366 107.164 57.044 106.318 58.409C107.37 58.339 108.441 58.155 108.976 57.121C109.28 56.538 108.655 55.301 109.45 54.973C110.495 54.542 111.076 56.042 111.818 56.435C112.78 56.943 114.458 56.932 115.531 56.909C116.785 56.881 120.239 56.392 120.514 54.814C120.69 53.81 119.626 51.13 121.264 50.938C120.062 50.541 119.716 49.237 118.35 49.074C117.197 48.935 115.974 49.218 115.022 48.368C114.106 47.552 113.696 47.333 112.381 47.326C110.761 47.316 110.722 46.648 109.509 45.725C108.625 45.055 107.899 44.884 106.855 44.776C105.842 44.671 105.726 43.59 106.91 43.702C107.83 43.789 108.542 42.509 109.389 42.223C110.96 41.695 111.663 41.046 113.106 40.285C112.583 39.949 109.452 37.179 109.377 36.724C109.208 35.687 111.779 35.185 110.695 33.93C113.021 33.668 114.988 34.215 117.234 34.1C117.863 34.068 118.912 34.715 119.053 33.661C119.208 32.524 117.817 32.325 117.048 32.128C115.157 31.639 113.07 31.386 111.241 30.726C108.811 29.849 113.37 28.788 113.435 28.691C112.884 27.872 112.36 27.983 111.539 28.181C110.314 28.479 109.148 27.794 108.115 27.232C111.034 26.991 108.692 25.087 107.85 24.398C108.429 24.285 109.003 24.315 109.569 24.484C109.097 22.785 113.376 23.863 114.012 24.114C115.387 24.656 115.662 23.941 116.952 23.711C118.39 23.454 118.617 24.826 119.875 24.915C119.509 22.637 121.767 22.939 123.487 22.939C123.6 22.653 123.716 22.366 123.833 22.079C124.399 21.989 124.966 21.966 125.537 22.009C126.72 21.96 127.589 21.825 128.786 21.917C129.99 22.01 129.723 20.714 130.934 20.697C132.166 20.677 133.312 20.181 134.551 20.406C135.453 20.57 136.237 19.648 137.107 20.259C138.286 21.086 138.191 20.342 138.183 19.419C138.162 16.618 145.858 17.416 147.474 17.03C149.737 16.49 152.337 15.465 154.658 15.465C155.595 15.465 156.385 14.336 156.958 14.383C158.019 14.469 159.041 14.417 159.812 13.49C159.038 13.351 158.615 12.184 159.552 12.306C160.556 12.436 162.109 11.734 161.708 10.571C162.413 10.771 163.127 10.829 163.854 10.742C163.602 10.451 163.343 10.166 163.081 9.884C163.984 9.927 164.813 10.457 165.71 10.569C166.637 10.686 167.6 10.449 168.589 10.634C169.282 10.762 174.913 13.639 175.145 11.875C175.414 9.85 178.541 11.908 179.338 12.663C180.081 13.369 180.234 13.968 180.645 14.882C181.176 16.073 182.624 16.623 183.698 17.184C182.557 18.368 185.645 20.947 183.182 21.136C184.795 23.124 185.992 21.683 187.52 22.6C188.403 23.129 189.333 22.547 189.536 21.686C189.748 20.765 191.862 21.996 192.454 21.91C191.799 21.581 191.421 20.929 191.595 20.193C192.851 20.752 193.754 22.424 195.209 22.511C194.002 23.407 195.196 23.685 195.724 24.83C196.207 24.305 196.81 24.044 197.527 24.057C197.138 23.463 196.497 23.138 195.808 23.456C197.066 19.898 202.927 27.305 204.482 23.112C205.118 23.614 205.603 24.334 205.601 25.174C203.978 24.947 203.558 25.755 202.957 27.078C202.54 27.99 204.92 28.701 205.171 29.469C206.321 28.402 207.044 27.383 208.775 27.493C210.113 27.578 211.413 28.948 212.64 28.955C212.476 26.437 213.83 26.338 215.644 25.691C216.517 25.38 219.095 24.334 217.972 23.029C218.993 22.941 219.98 22.664 220.937 22.3C221.581 22.045 222.218 21.78 222.855 21.51C223.111 21.201 223.342 20.879 223.554 20.54C224.122 20.335 224.872 20.949 225.366 20.422C226.179 19.552 226.648 19.75 227.755 19.338C227.508 19.638 227.281 19.953 227.074 20.283C227.877 20.49 228.212 21.296 227.671 21.966C227.02 22.775 226.156 22.174 225.358 22.687C228.987 25.437 233.237 27.015 237.171 29.23C241.116 31.452 244.479 34.568 247.879 37.521C251.762 40.891 255.417 44.466 259.149 48C261.389 50.124 264.55 55.153 267.696 55.841C266.164 54.214 270.967 54.785 269.508 52.801C268.255 51.098 270.328 51.858 270.285 50.515C271.245 50.902 274.303 50.882 274.636 51.97C275.013 53.204 274.187 54.352 276.2 53.951C277.841 53.624 278.149 55.911 279.554 56.183C280.289 56.327 280.991 55.87 281.701 55.798C282.709 55.696 283.586 56.392 284.621 56.343C286.517 56.255 287.206 55.75 288.556 54.673C288.886 54.411 289.572 54.626 289.945 54.553C290.609 54.421 290.532 53.789 291.119 53.608C295.221 52.342 299.675 57.233 302.011 59.803C303.311 61.232 304.975 61.375 306.731 61.918C308.781 62.548 309.571 63.916 311.034 65.309C311.663 65.911 312.174 66.263 312.686 66.973C313.465 68.054 313.939 67.146 314.957 67.517C316.316 68.013 318.139 67.41 319.511 67.976C321.242 68.691 321.264 67.702 322.37 66.829C322.629 66.627 324.914 64.903 324.391 66.197C323.37 68.743 330.683 70.991 331.867 72.587C330.513 72.252 326.309 71.798 327.929 74.474C329.061 76.348 328.433 78.031 326.478 78.873C325.004 79.507 322.122 78.617 321.93 80.759C321.63 84.13 323.726 87.334 325.548 89.967C327.504 92.792 323.602 92.984 322.214 94.177C321.086 95.148 320.716 95.449 319.612 94.237C318.523 93.041 316.22 93.623 314.837 93.791C311.711 94.166 309.637 92.667 306.89 91.641C304.202 90.634 305.026 96.893 305.077 98.409C305.173 101.36 304.808 104.235 304.764 107.158C304.716 109.97 309.195 108.527 308.662 111.809C308.434 113.207 307.107 112.133 306.418 111.797C305.264 111.236 304.301 112.176 303.092 111.959C302.114 111.784 301.372 110.096 300.451 110.524C299.178 111.119 296.869 112.026 295.486 112.191C293.624 112.415 288.523 112.611 287.632 114.761C287.006 116.274 294.228 115.266 292.747 117.237C291.403 119.022 295.502 124.61 296.501 125.879C297.439 127.071 298.897 128.419 299.333 129.91C299.646 130.981 301.146 131.901 300.604 133.139C299.533 132.378 298.639 133.557 298.11 134.34C298.751 134.608 299.324 134.979 299.828 135.456C299.054 135.654 298.345 136.098 297.515 136.057C297.689 136.91 297.447 137.838 297.825 138.643C298.369 139.803 299.746 140.961 299.318 142.414C297.341 141.245 296.38 139.802 293.896 139.768C291.5 139.737 290.623 137.884 288.79 136.785C287.227 135.847 284.004 135.865 282.205 135.674C279.25 135.361 276.245 135.472 273.277 135.226C272.292 135.144 271.687 134.976 270.789 134.601C269.579 134.094 268.544 134.806 267.379 135.084C266.32 135.338 260.316 134.339 260.117 135.112C259.26 138.444 248.265 132.227 246.068 131.507C246.495 132.259 242.843 133.134 242.388 133.384C240.502 134.42 241.646 138.747 242.894 139.922C241.908 140.252 240.771 139.316 239.917 138.976C238.595 138.447 237.009 138.476 235.624 138.023C233.19 137.23 230.125 135.999 227.546 136.09C226.824 136.114 226.035 136.81 225.453 136.403C225.054 136.128 223.739 136.502 223.39 136.745C222.562 137.323 220.562 141.583 222.283 141.813C221.665 142.235 220.484 143.563 219.913 143.792C218.732 144.265 218.559 142.834 217.464 144.272C215.795 146.466 214 147.432 211.615 148.721C210.808 149.159 210.051 149.8 209.365 150.409C208.594 151.09 209.572 151.549 208.753 152.386C207.883 153.277 206.943 154.005 206.331 155.142C205.568 156.546 207.002 157.347 207.17 158.65C205.622 158.185 201.887 157.97 202.008 155.751C202.089 154.227 200.862 152.719 199.178 152.652C196.42 152.545 190.743 154.996 189.006 151.986C187.949 150.159 187.447 148.076 186.693 146.122C185.711 143.57 184.132 145.273 182.519 144.15C180.06 142.437 180.484 137.129 180.114 134.515C177.674 134.736 177.498 134.925 175.818 132.834C174.181 130.797 171.796 130.007 169.95 128.219C167.609 125.951 167.039 128.093 164.466 128.554C161.883 129.019 159.257 128.24 156.691 128.005C156.497 127.987 156.299 127.974 156.102 127.961C155.905 127.949 155.706 127.94 155.508 127.933C155.31 127.927 155.112 127.923 154.911 127.921C154.712 127.92 154.511 127.921 154.309 127.925C154.11 127.929 153.909 127.935 153.706 127.945C153.506 127.953 153.304 127.964 153.102 127.976C152.9 127.991 152.701 128.004 152.498 128.023C152.296 128.041 152.096 128.06 151.894 128.082C151.693 128.103 151.494 128.127 151.291 128.15C151.089 128.176 150.89 128.204 150.687 128.232C150.488 128.262 150.29 128.294 150.088 128.325C149.89 128.357 149.692 128.39 149.493 128.427C149.296 128.463 149.097 128.5 148.9 128.538C148.705 128.577 148.508 128.616 148.314 128.658C148.12 128.699 147.926 128.741 147.734 128.785C147.543 128.828 147.35 128.872 147.161 128.918C144.221 129.626 142.688 127.189 140.501 125.591C138.256 123.954 136.688 121.883 134.647 120.096C132.336 118.071 133.413 118.711 130.679 117.327C130.667 117.32 131.536 117.072 130.769 116.248C130.002 115.421 128.981 114.68 127.952 113.565C125.348 110.342 127.537 111.6 127.285 108.491C127.144 107.637 122.242 107.641 122.272 108.204C120.296 107.478 120.772 107.142 121.822 106.794C121.348 106.142 126.395 107.488 125.812 106.678C125.23 105.867 124.491 106.085 123.871 105.22C123.25 104.354 125.512 105.833 124.921 105.017C124.33 104.201 123.25 104.657 122.76 103.995C123.312 104.042 125.847 103.769 123.692 102.788C123.222 102.573 120.592 103.291 120.232 103.091C120.447 102.823 121.489 100.802 117.586 100.702C117.171 100.467 119.568 101.789 119.507 103.422C119.467 104.479 119.631 106.368 119.361 106.21C119.09 106.052 119.336 106.927 118.357 106.363C117.378 105.8 117.506 106.497 116.566 105.956C115.628 105.415 117.531 104.657 116.703 104.184C115.876 103.711 112.999 105.495 112.357 105.136C111.717 104.778 112.379 106.953 112.003 106.755C109.277 105.323 114.215 107.433 111.033 108.288C105.604 109.746 97.072 111.297 92.034 113.809C91.121 114.264 95.053 128.452 95.385 129.973C96.928 137.061 98.458 144.153 99.89 151.266C98.756 151.233 97.776 152.007 96.644 152.008C95.221 152.009 93.878 150.335 93.037 149.375C90.952 146.994 89.134 144.437 86.28 142.898C83.121 141.195 81.14 140.599 77.601 141.5C74.205 142.363 71.413 144.146 69.402 147.057C69.609 145.464 68.136 144.149 68.756 142.559C69.402 140.903 70.568 138.83 68.794 137.436C69.061 137.665 69.345 137.866 69.652 138.039C70.97 136.31 65.818 135.866 64.816 135.465C63.772 135.049 63.095 136.121 62.145 135.17C61.404 134.43 60.608 133.578 60.21 132.593C59.637 131.17 57.109 134.111 56.805 130.758C56.701 129.612 56.355 128.926 55.429 128.21C54.158 127.228 53.564 125.614 52.722 124.29C51.504 122.376 50.379 121.43 48.142 121.019C46.943 120.8 44.325 119.699 45.952 118.068C47.055 116.962 49.521 117.494 50.821 117.873C51.614 118.103 52.165 118.818 52.94 119.014C54.043 119.289 55.333 118.688 56.517 118.889C55.606 117.315 53.014 117.184 51.725 115.975C50.519 114.841 52.795 111.226 54.081 110.677C54.454 110.518 55.99 109.581 56.185 109.572C56.629 109.679 57.051 109.845 57.449 110.07C58.182 110.354 59.178 109.918 59.921 109.852C62.509 109.631 66.262 111.819 68.544 110.47C67.261 109.829 64.842 109.577 64.224 108.071C63.365 105.978 66.581 103.393 65.884 100.851C65.237 98.49 63.95 96.608 62.564 94.893C61.897 94.065 59.274 93.658 58.468 94.431C54.809 97.95 48.047 88.839 45.286 94.359C45.173 94.582 43.341 94.681 43.167 94.661C41.961 94.516 41.926 95.899 41.104 96.509C40.365 97.057 39.512 97.46 38.691 97.87C38.157 98.128 37.594 98.277 37.001 98.315C36.055 98.365 34.751 97.042 35.812 98.79C35.244 98.415 34.645 98.099 34.011 97.844C34.356 98.189 34.702 98.533 35.048 98.875C34.638 98.749 34.35 98.863 34.186 99.222C33.962 100.418 32.811 99.041 33.844 100.248C32.715 99.752 27.308 98.404 27.235 96.985C27.133 94.996 34.014 98.224 29.662 93.996C26.889 91.302 25.027 87.178 21.137 86.001C19.831 85.606 18.129 85.161 16.782 85.61C16.72 85.631 16.665 85.654 16.614 85.679C16.563 85.704 16.518 85.731 16.478 85.759C16.437 85.787 16.4 85.817 16.368 85.848C16.335 85.878 16.305 85.911 16.28 85.941C16.24 85.969 16.216 86 16.195 86.03C16.174 86.061 16.154 86.091 16.135 86.12C16.117 86.149 16.099 86.177 16.082 86.203C16.065 86.229 16.048 86.253 16.031 86.274C16.013 86.295 15.996 86.314 15.976 86.331C15.957 86.347 15.935 86.359 15.913 86.368C15.891 86.377 15.866 86.381 15.838 86.382C15.81 86.382 15.779 86.377 15.744 86.369C15.709 86.359 15.67 86.345 15.627 86.324C15.584 86.304 15.536 86.278 15.483 86.246C15.429 86.214 15.371 86.175 15.306 86.129C15.24 86.083 15.169 86.029 15.091 85.969C15.04 85.929 14.992 85.889 14.947 85.845C14.901 85.803 14.859 85.758 14.818 85.712C14.778 85.665 14.739 85.617 14.702 85.568C14.667 85.52 14.631 85.468 14.598 85.418C14.565 85.366 14.535 85.314 14.504 85.259C14.474 85.206 14.445 85.152 14.417 85.097C14.389 85.042 14.361 84.987 14.334 84.93C14.308 84.874 14.281 84.819 14.255 84.763C14.229 84.706 14.203 84.649 14.176 84.594C14.15 84.537 14.124 84.481 14.096 84.425C14.069 84.368 14.041 84.313 14.013 84.257C13.985 84.203 13.955 84.147 13.924 84.094C13.893 84.04 13.861 83.987 13.827 83.935C13.794 83.883 13.759 83.831 13.721 83.782C13.684 83.732 13.646 83.682 13.604 83.636C13.562 83.589 13.518 83.543 13.472 83.499C13.49 83.486 13.508 83.473 13.525 83.461C13.543 83.448 13.56 83.435 13.578 83.423C13.596 83.41 13.613 83.397 13.632 83.385C13.65 83.372 13.667 83.359 13.685 83.347C13.703 83.334 13.72 83.321 13.738 83.309C13.756 83.296 13.773 83.283 13.792 83.271C13.81 83.258 13.827 83.245 13.845 83.233C13.863 83.22 13.88 83.207 13.899 83.195C13.917 83.182 13.935 83.17 13.952 83.157C13.97 83.144 13.987 83.133 14.006 83.119C14.024 83.107 14.042 83.094 14.059 83.082C14.077 83.069 14.096 83.057 14.113 83.044C14.131 83.031 14.149 83.019 14.166 83.006C14.185 82.994 14.203 82.981 14.22 82.969C14.238 82.956 14.256 82.944 14.274 82.931C14.292 82.919 14.31 82.906 14.327 82.894C14.29 82.86 14.255 82.826 14.222 82.79C14.188 82.754 14.157 82.719 14.126 82.683C14.095 82.647 14.067 82.608 14.04 82.571C14.013 82.533 13.987 82.494 13.962 82.455C13.937 82.416 13.914 82.377 13.89 82.337C13.868 82.297 13.847 82.257 13.825 82.217C13.804 82.175 13.784 82.134 13.764 82.093C13.743 82.051 13.725 82.01 13.706 81.968C13.687 81.926 13.668 81.884 13.649 81.843C13.631 81.801 13.612 81.758 13.595 81.716C13.576 81.673 13.558 81.631 13.539 81.588C13.52 81.545 13.502 81.503 13.482 81.462C13.463 81.419 13.443 81.377 13.423 81.334C13.403 81.293 13.381 81.251 13.36 81.209C13.338 81.167 13.315 81.126 13.292 81.085C13.268 81.043 13.243 81.003 13.217 80.963C13.194 80.926 13.166 80.893 13.137 80.861C13.106 80.829 13.072 80.798 13.035 80.77C12.998 80.741 12.959 80.714 12.917 80.689C12.875 80.664 12.83 80.641 12.784 80.618C12.737 80.596 12.688 80.575 12.638 80.555C12.587 80.535 12.534 80.517 12.481 80.499C12.428 80.482 12.372 80.466 12.317 80.451C12.261 80.435 12.205 80.421 12.147 80.409C12.09 80.396 12.033 80.383 11.976 80.371C11.918 80.359 11.86 80.348 11.804 80.337C11.746 80.327 11.689 80.316 11.634 80.306C11.579 80.296 11.523 80.286 11.469 80.277C11.416 80.268 11.363 80.258 11.312 80.25C11.261 80.241 11.211 80.231 11.165 80.222C11.118 80.214 11.073 80.204 11.03 80.195C10.988 80.185 10.947 80.175 10.909 80.165C10.784 80.13 10.662 80.096 10.547 80.06C10.43 80.026 10.319 79.99 10.213 79.954C10.106 79.919 10.004 79.882 9.90699 79.844C9.80999 79.805 9.71699 79.766 9.62899 79.726C9.54199 79.686 9.45899 79.643 9.38099 79.6C9.30299 79.555 9.22999 79.509 9.16099 79.46C9.09099 79.412 9.02699 79.361 8.96799 79.308C8.90899 79.254 8.85499 79.198 8.80499 79.138C8.75399 79.079 8.70899 79.015 8.66899 78.95C8.62699 78.884 8.59199 78.813 8.55999 78.739C8.52899 78.666 8.50199 78.587 8.48099 78.504C8.45899 78.421 8.44099 78.334 8.42799 78.242C8.41499 78.151 8.40699 78.053 8.40299 77.951C8.39999 77.847 8.39999 77.74 8.40499 77.626C8.40999 77.513 8.42099 77.395 8.43499 77.27C8.44499 77.144 8.46399 77.013 8.48799 76.875Z" fill="#2196F3" stroke="white" stroke-width="1.0003"/>
<path d="M114.371 106.189C114.572 106.796 114.948 107.451 115.397 107.906C116.261 104.932 118.327 110.685 118.581 110.913C118.516 110.183 118.341 108.839 117.723 108.336C120.961 110.246 119.536 111.818 119.464 112.003L113.505 108.756C113.634 108.322 113.224 107.121 115.015 107.942C114.233 107.422 114.103 107.093 114.452 106.187L114.371 106.189Z" fill="#795548" stroke="white" stroke-width="1.0003"/>
<path d="M91.798 113.892C96.284 112.23 100.924 111.044 105.522 109.731C107.168 109.26 109.461 109.105 111.076 108.531C112.847 107.901 108.935 113.773 111.469 117.103C111.567 117.23 111.795 119.158 112.258 120.013C112.72 120.867 113.393 120.752 113.597 120.744L117.841 120.594C118.555 120.49 118.622 121.544 118.88 122.132C119.032 122.484 120.175 122.89 120.47 124.355C120.563 124.808 120.942 123.664 121.226 123.253C121.581 122.74 127.601 123.136 127.48 123.279C129.123 122.055 130.203 120.317 130.195 117.817C130.55 117.914 131.394 118.079 131.702 118.229C135.147 119.928 138.169 123.528 140.948 126.145C142.076 127.21 143.335 128.444 144.846 128.932C146.633 129.51 149.135 128.356 150.915 128.036C155.574 127.197 160.545 129.516 165.053 128.386C166.22 128.093 167.311 126.234 168.619 126.957C170.274 127.87 171.322 129.506 173.07 130.38C174.784 131.235 175.328 132.454 176.564 133.818C177.859 135.241 178.415 134.655 180.095 134.503C180.465 137.117 180.041 142.424 182.5 144.139C183.715 144.985 185.336 143.971 186.258 145.542C187.323 147.357 187.722 149.521 188.655 151.402C190.49 155.103 195.897 152.513 199.076 152.622C200.944 152.687 202.149 154.189 201.968 155.881C201.695 158.409 205.624 158.18 207.152 158.637C207.027 157.672 205.361 156.217 206.332 155.257C207.227 154.375 207.236 153.326 208.551 152.8C209.649 152.362 208.546 151.186 209.166 150.494C209.956 149.611 211.915 148.601 212.939 147.884C214.154 147.035 215.659 147.047 216.502 145.706C216.898 145.077 217.475 143.717 218.292 143.527C219.557 143.234 219.594 144.103 220.784 142.876C222.099 141.516 223.324 141.486 224.923 142.316C223.082 144.052 218.113 146.513 217.706 149.273C218.779 149.295 219.437 150.277 220.463 150.388C221.654 150.519 222.372 149.224 223.032 150.867C224.146 153.636 227.222 151.752 228.872 153.307C229.098 152.823 229.098 152.335 228.872 151.846C229.346 151.854 229.707 151.668 229.958 151.286C230.329 150.583 229.943 149.639 229.814 148.926C230.572 150.305 231.742 150.505 232.892 151.839C234.062 153.193 235.84 152.409 235.919 154.596C238.036 153.326 238.831 155.77 240.617 155.953C241.055 155.999 241.965 155.589 242.131 156.133C242.24 156.492 243.334 155.997 243.833 156.298C244.681 156.813 242.674 157.553 242.385 157.77C240.783 158.968 241.179 159.69 238.915 158.717C238.836 159.483 239.188 160.042 239.522 160.69C239.009 160.657 234.02 160.953 236.6 162.323C235.878 162.3 235.151 162.686 234.485 162.904C233.828 163.118 233.862 162.454 233.153 162.776C232.509 163.067 231.703 162.04 231.158 161.875C229.957 161.515 228.77 161.847 227.631 162.25C225.146 163.133 224.841 161.871 222.605 161.121C220.517 160.419 225.126 158.081 224.888 157.324C224.802 157.053 224.146 157.286 223.982 156.998C223.334 155.849 222.336 155.046 221.31 154.25C220.741 155.32 217.127 159.037 215.673 158.054C214.685 157.384 212.86 156.005 212.355 158.125C212.13 159.063 213.159 162.147 213.924 162.752C212.097 163.505 209.675 161.597 208.09 163.267C209.028 164.017 210.496 162.832 211.099 164.126C210.7 164.067 210.297 164.041 209.894 164.042C209.998 164.747 210.431 165.364 211.013 165.758C210.064 164.855 209.888 164.941 210.491 166.019C209.952 165.993 209.163 166.013 209.269 166.761C209.459 168.076 209.664 169.49 207.804 169.519C206.021 169.545 204.328 168.697 202.595 168.765C201.753 168.8 201.157 169.201 200.506 169.683C199.527 170.414 200.084 170.355 199.97 171.437C199.824 172.752 200.445 173.187 201.687 173.547C203.092 173.953 202.816 174.955 204.122 175.201C205.066 175.378 207.154 175.057 207.585 176.246C207.856 176.992 207.198 177.643 207.184 178.379C207.165 179.226 207.557 180.094 208.02 180.781C208.725 181.824 210.074 182.272 210.678 183.372C211.624 185.081 209.655 186.38 209.123 187.81C208.445 189.642 207.873 190.665 208.262 192.644C208.581 194.286 206.953 193.249 206.173 193.044C204.589 192.631 204.254 193.87 202.678 192.985C202.008 192.608 201.362 192.061 200.596 191.881C199.688 191.669 198.887 192.224 197.992 192.069C196.592 191.826 196.723 190.309 196.331 188.795C195.976 187.418 197.658 185.626 195.767 185.112C194.579 184.79 193.656 184.633 192.581 183.936C190.753 182.747 189.419 183.149 187.42 182.786C185.33 182.403 183.66 180.676 181.941 179.577C180.298 178.528 178.539 177.991 176.976 176.776C175.497 175.626 173.705 175.785 172.247 174.762C170.416 173.477 168.47 172.338 166.621 171.061C163.76 169.085 157.715 167.049 156.251 163.709C154.875 160.57 152.449 158.756 150.899 155.646C150.06 153.963 149.035 152.866 147.284 152.101C146.817 151.898 146.006 151.456 145.482 151.585C144.737 151.771 145.242 152.742 144.36 152.831C142.599 153.007 140.829 151.999 138.924 152.149C137.426 152.266 136.111 151.577 134.779 150.967C133.792 150.514 132.415 146.282 133.884 146.518C133.341 145.079 131.618 145.53 131.524 143.721C131.429 141.901 130.296 141.258 128.508 141.286C127.659 141.299 125.054 141.571 124.714 140.453C124.196 138.762 122.454 139.285 121.244 138.512C120.669 138.145 119.229 136.348 118.43 136.975C117.451 137.743 117.633 137.688 116.22 137.434C113.944 137.024 118.253 140.901 118.676 141.362C117.533 141.092 117.597 139.803 116.242 139.75C115.526 139.722 113.261 138.733 113.633 140.342C114.408 143.693 110.383 141.877 108.917 143.382C106.809 145.546 106.866 146.195 107.997 149.005C108.357 149.901 109.668 150.756 108.984 151.618C108.535 152.186 106.204 151.672 105.546 151.675C102.889 151.685 99.799 152.234 99.415 149.123C98.919 145.101 97.725 141.061 96.819 137.113C95.945 133.296 95.054 129.481 94.221 125.655C93.391 121.854 93.109 117.563 91.798 113.892Z" fill="#4CAF50" stroke="white" stroke-width="1.0003"/>
<path d="M119.533 112.103C119.831 113.422 119.47 115.861 118.327 116.741C118.26 116.544 118.206 116.344 118.16 116.14C117.837 117.208 119.153 118.036 119.198 119.06C118.394 117.536 119.09 119.202 117.647 118.201C117.262 119.076 118.262 120.677 116.388 120.139C116.207 120.086 113.948 117.123 113.948 116.826C113.948 116.189 115.843 117.576 116.073 117.671C117.068 118.081 115.594 114.425 114.986 116.225C114.525 115.393 114.772 113.497 116.01 113.475C115.702 113.198 113.219 114.307 113.571 113.52C113.888 112.809 114.823 112.882 114.175 111.877C113.69 111.122 112.863 109.7 113.435 108.751L119.533 112.103Z" fill="#795548" stroke="white" stroke-width="1.0003"/>
</g>
<defs>
<filter id="filter0_d" x="-4" y="0" width="351" height="235" filterUnits="userSpaceOnUse" color-interpolation-filters="sRGB">
<feFlood flood-opacity="0" result="BackgroundImageFix"/>
<feColorMatrix in="SourceAlpha" type="matrix" values="0 0 0 0 0 0 0 0 0 0 0 0 0 0 0 0 0 0 127 0"/>
<feOffset dy="4"/>
<feGaussianBlur stdDeviation="2"/>
<feColorMatrix type="matrix" values="0 0 0 0 0 0 0 0 0 0 0 0 0 0 0 0 0 0 0.25 0"/>
<feBlend mode="normal" in2="BackgroundImageFix" result="effect1_dropShadow"/>
<feBlend mode="normal" in="SourceGraphic" in2="effect1_dropShadow" result="shape"/>
</filter>
</defs>
</svg>
