<svg width="469" height="469" viewBox="0 0 469 469" fill="none" xmlns="http://www.w3.org/2000/svg">
<g clip-path="url(#clip0)">
<path d="M360.541 304.296C358.134 304.161 355.429 303.661 352.996 303.092C350.376 302.48 349.894 298.973 352.247 297.667C384.505 279.765 402.113 251.948 409.994 236.231C411.368 233.491 408.139 230.792 405.63 232.553C403.406 234.114 401.319 235.339 399.39 236.296C396.329 237.816 393.538 233.847 396.047 231.527C415.468 213.566 433.723 177.349 441.946 159.626C443.091 157.158 440.555 154.575 438.083 155.711C435.029 157.114 431.761 158.032 428.767 158.633C425.833 159.221 424.015 155.497 426.282 153.545C451.538 131.804 460.548 96.59 463.573 79.156C464.026 76.545 461.162 74.804 458.951 76.265C455.218 78.731 450.746 79.537 447.177 79.721C444.631 79.852 443.159 76.866 444.789 74.906C475.032 38.54 462.685 8.91002 458.805 1.58002C458.22 0.475019 457.038 -0.135982 455.799 0.0250185C447.575 1.09402 416.258 8.13902 404.056 53.838C403.398 56.301 400.11 56.825 398.746 54.671C396.834 51.652 394.908 47.536 394.763 43.064C394.678 40.415 391.602 39.084 389.733 40.962C377.252 53.505 353.72 81.208 350.571 114.383C350.288 117.362 346.198 118.029 344.983 115.295C343.743 112.505 342.604 109.308 341.984 106.004C341.482 103.33 337.909 102.753 336.557 105.113C326.845 122.066 307.835 157.893 304.4 184.122C303.956 187.511 299.105 187.526 298.576 184.15C298.243 182.022 298.036 179.611 298.025 176.893C298.013 173.828 293.943 172.752 292.501 175.457C284.229 190.971 271.702 221.416 275.732 258.088C276.026 260.763 272.886 262.396 270.872 260.612C269.002 258.955 267.031 257.035 265.529 255.149C264.1 253.354 261.255 253.937 260.488 256.099C257.551 264.372 254.216 281.446 263.292 305.476C264.194 307.865 261.804 310.258 259.456 309.252C259.38 309.22 259.305 309.186 259.229 309.152C256.885 308.105 254.357 310.135 255.081 312.597C258.408 323.913 263.707 339.46 271.529 356.009C272.099 357.215 273.446 357.912 274.76 357.68C292.787 354.5 308.538 349.841 319.695 346.017C322.123 345.185 322.318 341.949 320.11 340.64C320.038 340.598 319.968 340.555 319.898 340.512C317.72 339.178 318.291 335.844 320.763 335.2C345.619 328.721 357.626 316.133 362.681 308.955C364 307.083 362.832 304.425 360.541 304.296Z" fill="#FF7F50"/>
<path d="M436.957 44.6738C436.957 44.6738 283.356 279.159 235.234 452.104L246.553 436.106C246.552 436.106 378.973 143.944 436.957 44.6738Z" fill="#FFBCA4"/>
<path d="M226.485 455.38C163.51 456.704 146.758 442.558 142.407 434.052C136.027 421.576 147.339 406.304 147.636 405.899C150.197 402.16 157.987 390.785 151.294 382.695C147.621 378.24 137.851 366.401 44.7156 407.037C37.2586 410.279 29.6086 411.146 22.6266 409.541C21.2886 409.235 16.8976 408.084 16.5416 406.158C14.7566 396.504 46.2676 368.046 76.9776 347.35L68.6786 343.823C65.1066 342.305 61.0356 342.764 57.8936 345.042C35.7656 361.085 0.492593 389.912 3.92659 408.488C4.79859 413.216 8.25259 419.412 19.7506 422.048C29.4536 424.283 39.8496 423.155 49.8496 418.795C106.947 393.884 135.121 388.434 141.045 390.776C140.88 391.748 140.173 394.093 137.241 398.386C136.574 399.261 120.951 420.125 130.94 439.812C140.539 458.725 170.087 468.294 218.837 468.294C221.419 468.294 224.055 468.263 226.747 468.213C230.285 468.143 233.102 465.211 233.031 461.667C232.961 458.122 230.199 455.269 226.485 455.38Z" fill="#AEB0B3"/>
</g>
<defs>
<clipPath id="clip0">
<rect width="468.293" height="468.293" fill="white"/>
</clipPath>
</defs>
</svg>
