<svg id="Layer_1" enable-background="new 0 0 124 124" height="512" viewBox="0 0 124 124" width="512" xmlns="http://www.w3.org/2000/svg"><path d="m57.066 72.742c2.444-2.427 6.407-2.427 8.852 0 2.444 2.427 2.444 6.362 0 8.789s-6.407 2.427-8.852 0-2.444-6.362 0-8.789z" fill="#74d2f7"/><path d="m65.913 76.565c-.881-.253-1.83.164-2.207.974-.308.662-.775 1.25-1.35 1.701-.722.566-.943 1.517-.539 2.313l.107.211c.237.467.665.818 1.172.962.17.048.341.072.511.072.325 0 .644-.087.928-.26.419-.253.775-.527 1.089-.838.731-.725 1.245-1.655 1.572-2.841.271-.982-.305-2.011-1.283-2.294z" fill="#3accf9"/><path d="m58.497 73.283-.251-.149c-.362-.216-.788-.28-1.196-.176-.402.1-.739.347-.949.696-.645 1.071-.926 2.36-.859 3.94.02.479.261.912.662 1.189.269.186.581.282.897.282.163 0 .328-.026.488-.077l.122-.039c.612-.197 1.021-.762 1.041-1.439.021-.732.221-1.456.579-2.096.427-.763.193-1.699-.534-2.131z" fill="#d7f4ff"/><path d="m92.83 80.119c2.444-2.427 6.407-2.427 8.852 0s2.444 6.362 0 8.789-6.407 2.427-8.852 0c-2.444-2.427-2.444-6.362 0-8.789z" fill="#74d2f7"/><path d="m101.676 83.942c-.881-.253-1.83.164-2.207.974-.308.662-.775 1.25-1.35 1.701-.722.566-.943 1.517-.539 2.313l.107.211c.237.467.665.818 1.172.962.17.048.341.072.511.072.325 0 .644-.087.928-.26.419-.253.775-.527 1.089-.838.731-.725 1.245-1.655 1.572-2.841.271-.982-.304-2.011-1.283-2.294z" fill="#3accf9"/><path d="m94.261 80.659-.251-.149c-.362-.216-.788-.28-1.196-.176-.402.1-.739.347-.949.696-.645 1.071-.926 2.36-.859 3.94.02.479.261.912.662 1.189.269.186.581.282.897.282.163 0 .328-.026.488-.077l.122-.039c.612-.197 1.021-.762 1.041-1.439.021-.732.221-1.456.579-2.096.427-.763.193-1.698-.534-2.131z" fill="#d7f4ff"/><path d="m21.562 80.119c2.444-2.427 6.407-2.427 8.852 0s2.444 6.362 0 8.789-6.407 2.427-8.852 0-2.444-6.362 0-8.789z" fill="#74d2f7"/><path d="m30.408 83.942c-.881-.253-1.83.164-2.207.974-.308.662-.775 1.25-1.35 1.701-.722.566-.943 1.517-.539 2.313l.107.211c.237.467.665.818 1.172.962.17.048.341.072.511.072.325 0 .644-.087.928-.26.419-.253.775-.527 1.089-.838.731-.725 1.245-1.655 1.572-2.841.271-.982-.304-2.011-1.283-2.294z" fill="#3accf9"/><path d="m22.993 80.659-.251-.149c-.362-.216-.788-.28-1.196-.176-.402.1-.739.347-.949.696-.645 1.071-.926 2.36-.859 3.94.02.479.261.912.662 1.189.269.186.581.282.897.282.163 0 .328-.026.488-.077l.122-.039c.612-.197 1.021-.762 1.041-1.439.021-.732.221-1.456.579-2.096.427-.763.193-1.698-.534-2.131z" fill="#d7f4ff"/><path d="m3.897 111.391c2.444-2.427 6.407-2.427 8.852 0s2.444 6.362 0 8.789-6.407 2.427-8.852 0-2.444-6.362 0-8.789z" fill="#74d2f7"/><path d="m12.743 115.214c-.881-.253-1.83.164-2.207.974-.308.662-.775 1.25-1.35 1.701-.722.566-.943 1.517-.539 2.313l.107.211c.237.467.665.818 1.172.962.17.048.341.072.511.072.325 0 .644-.087.928-.26.419-.253.775-.527 1.089-.838.731-.725 1.245-1.655 1.572-2.841.271-.982-.304-2.011-1.283-2.294z" fill="#3accf9"/><path d="m5.328 111.931-.251-.149c-.362-.216-.788-.28-1.196-.176-.402.1-.739.347-.949.696-.645 1.071-.926 2.36-.859 3.94.02.479.261.912.662 1.189.269.186.581.282.897.282.163 0 .328-.026.488-.077l.122-.039c.612-.197 1.021-.762 1.041-1.439.021-.732.221-1.456.579-2.096.427-.763.192-1.698-.534-2.131z" fill="#d7f4ff"/><path d="m40.458 111.391c2.444-2.427 6.407-2.427 8.852 0 2.444 2.427 2.444 6.362 0 8.789s-6.407 2.427-8.852 0-2.444-6.362 0-8.789z" fill="#74d2f7"/><path d="m49.305 115.214c-.881-.253-1.83.164-2.207.974-.308.662-.775 1.25-1.35 1.701-.722.566-.943 1.517-.539 2.313l.107.211c.237.467.665.818 1.172.962.17.048.341.072.511.072.325 0 .644-.087.928-.26.419-.253.775-.527 1.089-.838.731-.725 1.245-1.655 1.572-2.841.271-.982-.305-2.011-1.283-2.294z" fill="#3accf9"/><path d="m41.89 111.931-.251-.149c-.362-.216-.788-.28-1.196-.176-.402.1-.739.347-.949.696-.645 1.071-.926 2.36-.859 3.94.02.479.261.912.662 1.189.269.186.581.282.897.282.163 0 .328-.026.488-.077l.122-.039c.612-.197 1.021-.762 1.041-1.439.021-.732.221-1.456.579-2.096.427-.763.192-1.698-.534-2.131z" fill="#d7f4ff"/><path d="" style="fill:none;stroke:#2b1100;stroke-width:4;stroke-linecap:round;stroke-linejoin:round;stroke-miterlimit:10"/><path d="m74.817 111.391c2.444-2.427 6.407-2.427 8.852 0 2.444 2.427 2.444 6.362 0 8.789s-6.407 2.427-8.852 0c-2.444-2.427-2.444-6.362 0-8.789z" fill="#74d2f7"/><path d="m83.664 115.214c-.881-.253-1.83.164-2.207.974-.308.662-.775 1.25-1.35 1.701-.722.566-.943 1.517-.539 2.313l.107.211c.237.467.665.818 1.172.962.17.048.341.072.511.072.325 0 .644-.087.928-.26.419-.253.775-.527 1.089-.838.731-.725 1.245-1.655 1.572-2.841.27-.982-.305-2.011-1.283-2.294z" fill="#3accf9"/><path d="m76.248 111.931-.251-.149c-.362-.216-.788-.28-1.196-.176-.402.1-.739.347-.949.696-.645 1.071-.926 2.36-.859 3.94.02.479.261.912.662 1.189.269.186.581.282.897.282.163 0 .328-.026.488-.077l.122-.039c.612-.197 1.021-.762 1.041-1.439.021-.732.221-1.456.579-2.096.427-.763.193-1.698-.534-2.131z" fill="#d7f4ff"/><path d="m111.379 111.391c2.444-2.427 6.407-2.427 8.852 0s2.444 6.362 0 8.789-6.407 2.427-8.852 0-2.445-6.362 0-8.789z" fill="#74d2f7"/><path d="m120.225 115.214c-.881-.253-1.83.164-2.207.974-.308.662-.775 1.25-1.35 1.701-.722.566-.943 1.517-.539 2.313l.107.211c.237.467.665.818 1.172.962.17.048.341.072.511.072.325 0 .644-.087.928-.26.419-.253.775-.527 1.089-.838.731-.725 1.245-1.655 1.572-2.841.271-.982-.305-2.011-1.283-2.294z" fill="#3accf9"/><path d="m112.81 111.931-.251-.149c-.362-.216-.788-.28-1.196-.176-.402.1-.739.347-.949.696-.645 1.071-.926 2.36-.859 3.94.02.479.261.912.662 1.189.269.186.581.282.897.282.163 0 .328-.026.488-.077l.122-.039c.612-.197 1.021-.762 1.041-1.439.021-.732.221-1.456.579-2.096.427-.763.192-1.698-.534-2.131z" fill="#d7f4ff"/><path d="m38.007 17.09 1.058.001-1.058-.001c-.247-.689-.386-1.447-.387-2.245-.002-3.119 2.085-5.647 4.661-5.644 1.346.001 2.555.696 3.408 1.8 0-.001 0-.003 0-.003.781 1.009 1.261 2.364 1.262 3.855-.001-1.491-.481-2.846-1.262-3.857.294-3.301 2.611-5.87 5.429-5.867 1.416.001 2.703.658 3.675 1.724.89 1.291 1.797 3.297 1.798 4.871-.001-1.574-.908-3.579-1.798-4.871.058.064.119.123.175.19 1.205-2.989 3.697-5.045 6.585-5.043 3.532.003 6.482 3.077 7.202 7.175-.475.922-.753 2.013-.752 3.186-.001-1.173.276-2.264.752-3.186 0 .001 0 .002.001.003.859-1.667 2.37-2.776 4.096-2.775 2.68.002 4.855 2.673 4.858 5.966 0 .045-.005.088-.005.133.008-.014.018-.027.025-.041-.479.864-.762 1.912-.761 3.046-.001-1.134.282-2.182.761-3.046.765-1.381 2.034-2.286 3.474-2.285 2.341.002 4.241 2.392 4.243 5.338 0 .556-.067 1.092-.192 1.596l-1.623-.001 1.623.001h.514c2.294.002 4.155 2.38 4.158 5.311.002 2.931-1.856 5.306-4.15 5.304l-47.427-.04c-2.294-.002-4.155-2.38-4.158-5.311-.002-2.788 1.678-5.067 3.815-5.284z" fill="#ffcc64"/><path d="m40.746 21.837-3.21-.003c-1.599-.001-3.032 1.184-3.117 2.766-.091 1.688 1.262 3.085 2.945 3.086l3.378.003c1.631.001 2.955-1.309 2.955-2.926-.002-1.615-1.322-2.924-2.951-2.926z" fill="#ffe6c2"/><ellipse cx="62.023" cy="5.942" fill="#ffe6c2" rx="5.207" ry="3.942"/><path d="m38.023 38.278 1.058.001-1.058-.001c-.246.688-.384 1.446-.383 2.245.002 3.119 2.093 5.65 4.67 5.652 1.346.001 2.554-.691 3.405-1.794 0 .001 0 .003.001.004.779-1.009 1.257-2.363 1.256-3.854.001 1.491-.477 2.846-1.256 3.854.299 3.302 2.62 5.874 5.438 5.877 1.416.001 2.702-.653 3.672-1.717.888-1.29 1.792-3.294 1.79-4.868.001 1.574-.902 3.578-1.79 4.868.058-.063.119-.123.174-.189 1.21 2.991 3.704 5.051 6.593 5.054 3.532.003 6.477-3.066 7.192-7.163-.477-.923-.756-2.014-.757-3.187.001 1.173.28 2.265.757 3.187 0 0 0-.002.001-.003.862 1.669 2.374 2.78 4.101 2.782 2.68.002 4.851-2.665 4.849-5.958 0-.045-.005-.088-.006-.133.008.014.018.027.026.041-.48-.865-.764-1.914-.765-3.047.001 1.134.285 2.183.765 3.047.767 1.382 2.038 2.289 3.478 2.291 2.341.002 4.237-2.385 4.235-5.331 0-.556-.069-1.092-.195-1.596l-1.623-.001 1.623.001h.514c2.294.002 4.152-2.373 4.15-5.304s-1.864-5.309-4.158-5.311l-47.43-.04c-2.294-.002-4.152 2.373-4.15 5.304.002 2.787 1.686 5.069 3.823 5.289z" fill="#ffcc64"/><ellipse cx="51.281" cy="46.018" fill="#f9b43a" rx="5.207" ry="3.942"/><path d="m85.474 27.727-1.342-.001c-1.599-.001-3.032 1.184-3.117 2.766-.09 1.688 1.262 3.085 2.945 3.086l1.509.001c1.631.001 2.955-1.309 2.955-2.926-.001-1.615-1.321-2.925-2.95-2.926z" fill="#f9b43a"/><g fill="#2b1100"><path d="m58.693 19.367c.04-.004 3.828-.59 6.341 3.872.368.652 1.046 1.019 1.745 1.019 1.51 0 2.477-1.675 1.741-2.982-3.878-6.886-10.227-5.897-10.494-5.852-1.089.184-1.822 1.217-1.638 2.306s1.22 1.827 2.305 1.637z"/><path d="m57.993 32.437c-.076-1.095-1.021-1.914-2.119-1.857-1.103.068-1.94 1.018-1.872 2.12.164 2.635 2.213 8.065 8.8 9.76.167.043.335.063.5.063 2.284 0 2.704-3.369.497-3.938-5.34-1.373-5.787-5.919-5.806-6.148z"/><path d="m70.556 37.625c4.312-.107 6.584-2.502 7.556-3.921.624-.911.391-2.156-.521-2.78-.91-.623-2.155-.391-2.78.521-.659.962-1.949 2.122-4.354 2.182-1.104.027-1.977.945-1.95 2.049.027 1.087.917 1.95 1.999 1.95.017-.001.033-.001.05-.001z"/><path d="m117.804 107.839v-8.548c0-1.104-.896-2-2-2h-16.547l.001-4.819c3.564-.897 6.213-4.12 6.213-7.957 0-3.743-2.518-6.902-5.947-7.889v-11.592c0-1.104-.896-2-2-2h-34.032v-7.856c1.155-.28 2.257-.811 3.249-1.585.872-.679 1.027-1.936.349-2.807-.68-.872-1.937-1.028-2.807-.348-.816.635-1.745.971-2.687.971h-.003c-1.735-.001-3.348-1.126-4.357-2.989.751-1.402 1.378-3.137 1.379-4.738v-.006c0-1.104-.896-1.999-2-1.999h-.001c-1.104 0-1.999.896-1.999 2.001v.002c0 .921-.566 2.419-1.358 3.611-.45.463-1.158.97-2.101.97h-.001c-1.557-.001-2.941-1.449-3.35-3.399.756-1.266 1.166-2.772 1.166-4.328v-.006c0-1.104-.896-1.999-2-1.999h-.001c-1.104 0-1.999.897-1.999 2.001v.006c0 .96-.279 1.864-.787 2.556-.018.021-.036.043-.053.066-.293.379-.918 1.016-1.818 1.016h-.001c-1.447-.001-2.67-1.675-2.672-3.654 0-.496 1.035-.865 1.288-1.473.224-.537.198-1.145-.062-1.663-.555-1.107-1.645-1.106-2.715-1.107-.955-.161-1.949-1.49-1.951-3.291-.001-1.1.375-2.134 1.007-2.765.245-.245.642-.538 1.14-.538h.001l47.428.041c1.048.001 1.733 1.169 1.986 2.044.349 1.21.205 2.698-.569 3.722-.866 1.146-2.272.848-3.544.848-1.104 0-1.999.895-2 1.998 0 .986.617 1.487 1.403 1.907.515.275.379.559.181 1.137-.166.484-.413.956-.782 1.319-1.86 1.828-3.462-1.098-3.463-2.772-.002-2.713-4.056-2.494-3.998.205.027 1.143.278 2.254.733 3.257-.068 1.137-.503 2.199-1.192 2.888-.341.341-.903.748-1.643.748h-.002c-.907-.001-1.776-.636-2.325-1.699-.012-.023-.024-.046-.037-.068-.325-.658-.497-1.417-.498-2.2-.001-1.104-.896-1.999-2-1.999h-.001c-1.104.001-1.998.896-1.999 1.999v.003c.001 1.446.34 2.865.979 4.104 0 .001.001.003.002.004.016.031.033.062.05.092 1.257 2.358 3.426 3.764 5.824 3.766h.005c1.646 0 3.233-.681 4.471-1.918.663-.663 1.201-1.459 1.597-2.34.713.326 1.481.5 2.273.5h.004c1.487 0 2.923-.618 4.045-1.739 1.363-1.363 2.156-3.347 2.186-5.461.838-.279 1.622-.766 2.292-1.435 1.386-1.386 2.18-3.426 2.179-5.597-.002-2.087-.748-3.968-1.934-5.301 1.225-1.374 1.928-3.284 1.926-5.315-.002-3.338-1.9-6.163-4.48-7.033-.061-3.985-2.838-7.208-6.24-7.211h-.005c-.793 0-1.563.174-2.276.5-1.149-2.536-3.439-4.271-6.071-4.273h-.005c-1.175 0-2.295.337-3.28.958-1.664-3.24-4.68-5.358-8.015-5.361h-.007c-2.846 0-5.444 1.477-7.189 3.979-1-.555-2.102-.849-3.238-.85h-.006c-2.841 0-5.322 1.813-6.58 4.533-.716-.295-1.474-.46-2.251-.461h-.001c-1.104 0-2 .894-2 1.998-.001 1.104.893 2.001 1.998 2.002 1.786.002 2.67 2.163 2.672 3.654.001 1.691 2.06 2.606 3.319 1.496 1.248-1.1.359-2.505.359-3.847-.195-.697-.483-1.356-.844-1.963.4-1.955 1.771-3.411 3.328-3.411h.002c.947.001 1.658.511 2.11.977.795 1.196 1.364 2.698 1.365 3.62 0 1.104.896 1.999 2 1.999h.001c1.104 0 1.999-.896 1.999-2.001-.001-1.602-.631-3.341-1.386-4.747 1.006-1.859 2.612-2.979 4.344-2.979h.003c2.318.002 4.4 2.047 5.112 4.941-.434 1.063-.66 2.229-.66 3.413v.008c.001 1.104.896 1.999 2 1.999h.001c1.104-.001 1.998-.896 1.999-1.999v-.008c0-.809.183-1.591.53-2.26.546-1.059 1.411-1.691 2.315-1.691h.001c1.478.001 2.739 1.657 2.852 3.643-.481 1.062-.733 2.246-.733 3.462.001 2.712 3.719 2.93 4.003-.169.063-.691.198-1.35.507-1.908.435-.785 1.079-1.254 1.722-1.254h.001c1.104.001 2.084 1.335 2.227 2.942-1.009.102-1.796.953-1.797 1.988v.003c.001 1.103.895 1.998 1.998 1.999l2.137.002c1.02.001 2.158 1.361 2.159 3.313.001 1.101-.375 2.134-1.007 2.765-.245.246-.642.538-1.14.538h-.001l-47.428-.041c-1.02-.001-2.158-1.362-2.159-3.313-.001-1.798.988-3.122 1.939-3.281l.931.001h.002c1.104 0 1.999-.894 2-1.998v-.005c0-.907-.605-1.673-1.434-1.917-.084-1.244-.695-2.418-2.148-2.318-1.606.11-1.954 1.598-1.813 2.928-2.081 1.174-3.479 3.682-3.478 6.592.002 2.087.748 3.968 1.934 5.301-1.225 1.374-1.928 3.284-1.926 5.315.002 2.91 1.405 5.419 3.488 6.595-.033.31-.049.624-.049.939.003 4.215 2.995 7.647 6.668 7.651h.004c.775 0 1.535-.155 2.25-.448 1.262 2.72 3.75 4.533 6.59 4.535h.005c1.135 0 2.235-.292 3.233-.845 1.308 1.875 3.094 3.176 5.103 3.714v7.902h-33.501c-1.104 0-2 .896-2 2v11.522c-3.564.897-6.215 4.12-6.215 7.958 0 3.964 2.823 7.282 6.564 8.048l-.001 4.729h-16.013c-1.104 0-2 .896-2 2v8.515c-3.607.867-6.298 4.111-6.298 7.98 0 4.529 3.685 8.214 8.215 8.214s8.215-3.685 8.215-8.214c0-3.809-2.609-7.011-6.131-7.937v-6.558h32.562v6.537c-1.411.353-2.742 1.059-3.835 2.143-1.563 1.552-2.424 3.617-2.424 5.814s.861 4.262 2.424 5.813c1.609 1.598 3.722 2.396 5.835 2.396s4.227-.799 5.835-2.396c1.77-1.758 2.638-4.186 2.38-6.662-.114-1.098-1.097-1.904-2.196-1.783-1.099.114-1.897 1.097-1.783 2.196.131 1.267-.313 2.51-1.22 3.411-1.662 1.651-4.369 1.653-6.033 0-.801-.795-1.243-1.852-1.243-2.975s.441-2.18 1.243-2.976c1.317-1.309 3.385-1.614 5.028-.742.977.52 2.187.147 2.704-.829.518-.976.147-2.186-.829-2.704-.608-.323-1.243-.538-1.886-.7v-8.545c0-1.104-.896-2-2-2h-16.55l.001-4.909c3.388-1.014 5.865-4.155 5.865-7.868 0-3.839-2.65-7.062-6.215-7.958v-9.522h31.504v2.146c-1.406.347-2.739 1.055-3.835 2.144-1.563 1.552-2.424 3.617-2.424 5.813s.861 4.262 2.424 5.813c.783.778 2.05.773 2.828-.01.778-.784.774-2.05-.01-2.828-.801-.796-1.242-1.853-1.242-2.976s.441-2.18 1.242-2.975c1.664-1.652 4.371-1.65 6.034 0 .801.796 1.242 1.853 1.242 2.976s-.441 2.18-1.242 2.975c-.515.51-1.153.883-1.846 1.078-1.063.299-1.683 1.403-1.384 2.466.248.883 1.051 1.459 1.924 1.459.179 0 .361-.024.542-.075 1.347-.378 2.585-1.101 3.582-2.09 1.563-1.552 2.424-3.617 2.424-5.813s-.861-4.262-2.424-5.814c-1.097-1.089-2.429-1.797-3.835-2.143v-2.146h32.031v9.453c-3.7.798-6.482 4.092-6.482 8.027 0 3.839 2.651 7.062 6.217 7.958l-.001 4.818h-16.013c-1.104 0-2 .896-2 2v8.537c-3.565.897-6.215 4.12-6.215 7.958 0 4.529 3.685 8.214 8.215 8.214s8.215-3.685 8.215-8.214c0-3.839-2.65-7.062-6.215-7.958v-6.537h32.561v6.526c-3.586.881-6.258 4.115-6.258 7.97 0 4.529 3.685 8.214 8.215 8.214s8.215-3.685 8.215-8.214c0-3.821-2.629-7.033-6.172-7.945zm-105.35 7.947c0 2.324-1.891 4.214-4.215 4.214s-4.215-1.891-4.215-4.214c0-2.324 1.891-4.215 4.215-4.215s4.215 1.891 4.215 4.215zm17.749-31.272c0 2.324-1.891 4.214-4.215 4.214s-4.215-1.891-4.215-4.214c0-2.324 1.891-4.215 4.215-4.215s4.215 1.89 4.215 4.215zm53.255 31.272c0 2.324-1.891 4.214-4.215 4.214s-4.215-1.891-4.215-4.214c0-2.324 1.891-4.215 4.215-4.215s4.215 1.891 4.215 4.215zm9.583-31.272c0-2.324 1.891-4.215 4.215-4.215s4.215 1.891 4.215 4.215-1.891 4.214-4.215 4.214-4.215-1.89-4.215-4.214zm22.72 35.486c-2.324 0-4.215-1.891-4.215-4.214 0-2.324 1.891-4.215 4.215-4.215s4.215 1.891 4.215 4.215c0 2.323-1.891 4.214-4.215 4.214z"/></g></svg>