<?xml version="1.0" encoding="utf-8"?>
<!-- Generator: Adobe Illustrator 23.0.1, SVG Export Plug-In . SVG Version: 6.00 Build 0)  -->
<svg version="1.1" id="Layer_3" xmlns="http://www.w3.org/2000/svg" xmlns:xlink="http://www.w3.org/1999/xlink" x="0px" y="0px"
	 viewBox="0 0 193.7 41.6" style="enable-background:new 0 0 193.7 41.6;" xml:space="preserve">
<style type="text/css">
	.st0{fill:#2AAF4A;}
	.st1{fill:#0F7D3F;}
</style>
<title>logo</title>
<g>
	<path class="st0" d="M17.9,33.5c0,1.6-0.4,3-1.2,4.2c-0.8,1.2-2,2.2-3.5,2.9c-1.5,0.7-3.3,1-5.3,1c-1.7,0-3.1-0.1-4.3-0.4
		C2.5,41,1.3,40.6,0,40v-6.2c1.3,0.7,2.7,1.2,4.1,1.6C5.5,35.8,6.8,36,8,36c1,0,1.8-0.2,2.3-0.5c0.5-0.4,0.7-0.8,0.7-1.4
		c0-0.4-0.1-0.7-0.3-0.9c-0.2-0.3-0.5-0.5-0.9-0.8c-0.4-0.3-1.6-0.8-3.4-1.6c-1.7-0.8-2.9-1.5-3.8-2.2c-0.8-0.7-1.5-1.5-1.9-2.5
		c-0.4-0.9-0.6-2-0.6-3.3c0-2.4,0.9-4.2,2.6-5.5s4.1-2,7.1-2c2.6,0,5.4,0.6,8.1,1.8l-2.1,5.3c-2.4-1.1-4.5-1.6-6.2-1.6
		c-0.9,0-1.6,0.2-2,0.5C7.2,21.6,7,22,7,22.5c0,0.5,0.3,1,0.8,1.3C8.3,24.2,9.7,25,12,26c2.2,1,3.7,2.1,4.6,3.2
		C17.5,30.3,17.9,31.8,17.9,33.5z"/>
	<path class="st0" d="M36.6,41.3l-1.3-4.8H27l-1.3,4.8h-7.6l8.4-25.7h9.2l8.5,25.7H36.6z M33.9,30.8l-1.1-4.2
		c-0.3-0.9-0.6-2.1-0.9-3.6c-0.4-1.5-0.6-2.5-0.7-3.2c-0.1,0.6-0.3,1.6-0.6,2.9c-0.3,1.4-1,4.1-2.1,8.1H33.9z"/>
	<path class="st1" d="M84.1,0C56.9,18,52,41.3,52,41.3L40.1,15.7h7.8l3.6,11C51.5,26.7,56.4,14,84.1,0z"/>
	<path class="st0" d="M87.9,28.4c0,4.3-1.1,7.6-3.2,9.8c-2.1,2.2-5.2,3.4-9.3,3.4c-4,0-7.1-1.1-9.2-3.4C64.1,36,63,32.7,63,28.4
		c0-4.3,1.1-7.5,3.2-9.8s5.2-3.4,9.3-3.4c4.1,0,7.2,1.1,9.3,3.3S87.9,24.1,87.9,28.4z M70.3,28.4c0,4.9,1.7,7.4,5.2,7.4
		c1.8,0,3-0.6,3.9-1.8c0.8-1.2,1.3-3.1,1.3-5.6c0-2.6-0.4-4.4-1.3-5.7S77.2,21,75.5,21C72,21,70.3,23.4,70.3,28.4z"/>
	<path class="st0" d="M113.3,27.9c0,4.3-1.2,7.6-3.5,9.9c-2.4,2.3-5.7,3.5-9.9,3.5h-8.3V15.7h8.9c4.1,0,7.3,1.1,9.5,3.2
		C112.1,20.9,113.3,24,113.3,27.9z M106.1,28.2c0-2.3-0.5-4.1-1.4-5.2c-0.9-1.1-2.3-1.7-4.2-1.7h-2v14.3h1.5c2.1,0,3.6-0.6,4.6-1.8
		C105.6,32.6,106.1,30.7,106.1,28.2z"/>
	<path class="st0" d="M139.9,41.3h-8l-5-8l-4.9,8h-7.8l8.5-13.1l-8-12.5h7.7l4.6,7.9l4.4-7.9h7.9l-8.1,13L139.9,41.3z"/>
	<path class="st0" d="M165.7,28.4c0,4.3-1.1,7.6-3.2,9.8s-5.2,3.4-9.3,3.4c-4,0-7.1-1.1-9.2-3.4c-2.1-2.3-3.2-5.5-3.2-9.8
		c0-4.3,1.1-7.5,3.2-9.8c2.1-2.2,5.2-3.4,9.3-3.4c4.1,0,7.2,1.1,9.3,3.3S165.7,24.1,165.7,28.4z M148.1,28.4c0,4.9,1.7,7.4,5.2,7.4
		c1.8,0,3-0.6,3.9-1.8c0.8-1.2,1.3-3.1,1.3-5.6c0-2.6-0.4-4.4-1.3-5.7c-0.9-1.2-2.1-1.8-3.8-1.8C149.8,21,148.1,23.4,148.1,28.4z"/>
	<path class="st0" d="M193.7,41.3h-9.1l-9.4-18h-0.2c0.2,2.8,0.3,5,0.3,6.5v11.5h-6.1V15.7h9l9.3,17.8h0.1c-0.2-2.6-0.2-4.7-0.2-6.2
		V15.7h6.2V41.3z"/>
</g>
</svg>
