<svg id="Line" height="512" viewBox="0 0 64 64" width="512" xmlns="http://www.w3.org/2000/svg"><path d="m31 38v-2a16.52 16.52 0 0 1 .14-2h9.86a2 2 0 0 1 0 4zm22-6a4 4 0 1 0 4 4 4 4 0 0 0 -4-4zm-2 16a2 2 0 1 0 2-2 2 2 0 0 0 -2 2zm12-12v26a1 1 0 0 1 -1 1h-18a1 1 0 0 1 -1-1v-5h-9a3 3 0 0 1 -3-3v-5h8a1 1 0 0 0 0-2h-8v-7h10a4 4 0 0 0 0-8h-9.47a16 16 0 0 1 31.47 4zm-4 0a6 6 0 1 0 -7 5.91v2.23a4 4 0 1 0 2 0v-2.23a6 6 0 0 0 5-5.91z" fill="#c4a2fc"/><path d="m48 1h-44a3 3 0 0 0 -3 3v24a3 3 0 0 0 3 3h12.59l7 7a2 2 0 0 0 3.41-1.41v-5.59h21a3 3 0 0 0 3-3v-24a3 3 0 0 0 -3-3zm1 27a1 1 0 0 1 -1 1h-22a1 1 0 0 0 -1 1v6.59l-7.29-7.3a1 1 0 0 0 -.71-.29h-13a1 1 0 0 1 -1-1v-24a1 1 0 0 1 1-1h44a1 1 0 0 1 1 1zm-38-14v4a1 1 0 0 1 -2 0v-4a1 1 0 0 1 2 0zm4-2v8a1 1 0 0 1 -2 0v-8a1 1 0 0 1 2 0zm12 2v4a1 1 0 0 1 -2 0v-4a1 1 0 0 1 2 0zm-4-2v8a1 1 0 0 1 -2 0v-8a1 1 0 0 1 2 0zm-4-2v12a1 1 0 0 1 -2 0v-12a1 1 0 0 1 2 0zm12 2v8a1 1 0 0 1 -2 0v-8a1 1 0 0 1 2 0zm12 2v4a1 1 0 0 1 -2 0v-4a1 1 0 0 1 2 0zm-4-2v8a1 1 0 0 1 -2 0v-8a1 1 0 0 1 2 0zm-4-2v12a1 1 0 0 1 -2 0v-12a1 1 0 0 1 2 0z" fill="#151a6a"/></svg>